<svg width="205" height="34" viewBox="0 0 205 34" fill="none" xmlns="http://www.w3.org/2000/svg">
<path d="M9.264 26.24C7.504 26.24 6.032 25.872 4.848 25.136C3.68 24.4 2.8 23.376 2.208 22.064C1.632 20.736 1.344 19.184 1.344 17.408C1.344 15.68 1.648 14.16 2.256 12.848C2.864 11.52 3.768 10.488 4.968 9.752C6.168 9 7.648 8.624 9.408 8.624C10.576 8.624 11.544 8.744 12.312 8.984C13.096 9.224 13.68 9.552 14.064 9.968C14.448 10.384 14.64 10.848 14.64 11.36C14.64 11.936 14.4 12.408 13.92 12.776C13.456 13.128 12.808 13.304 11.976 13.304C11.976 12.792 11.888 12.288 11.712 11.792C11.552 11.296 11.272 10.888 10.872 10.568C10.488 10.232 9.96 10.064 9.288 10.064C8.2 10.064 7.328 10.352 6.672 10.928C6.032 11.504 5.568 12.336 5.28 13.424C4.992 14.512 4.848 15.84 4.848 17.408C4.848 18.896 5.008 20.168 5.328 21.224C5.664 22.28 6.192 23.08 6.912 23.624C7.632 24.168 8.576 24.44 9.744 24.44C10.528 24.44 11.2 24.336 11.76 24.128C12.32 23.904 12.792 23.624 13.176 23.288C13.56 22.952 13.888 22.608 14.16 22.256C14.288 22.352 14.392 22.488 14.472 22.664C14.552 22.84 14.592 23.04 14.592 23.264C14.592 23.584 14.496 23.92 14.304 24.272C14.112 24.608 13.808 24.928 13.392 25.232C12.976 25.536 12.424 25.784 11.736 25.976C11.064 26.152 10.24 26.24 9.264 26.24ZM23.9145 26.24C22.0745 26.24 20.6185 25.688 19.5465 24.584C18.4905 23.48 17.9625 21.792 17.9625 19.52C17.9625 17.28 18.4665 15.608 19.4745 14.504C20.4985 13.4 22.0025 12.848 23.9865 12.848C25.8425 12.848 27.2985 13.4 28.3545 14.504C29.4105 15.608 29.9385 17.28 29.9385 19.52C29.9385 21.792 29.4265 23.48 28.4025 24.584C27.3945 25.688 25.8985 26.24 23.9145 26.24ZM23.9625 24.824C24.6505 24.824 25.1945 24.632 25.5945 24.248C26.0105 23.848 26.3065 23.248 26.4825 22.448C26.6585 21.648 26.7465 20.672 26.7465 19.52C26.7465 18.352 26.6505 17.384 26.4585 16.616C26.2825 15.848 25.9865 15.272 25.5705 14.888C25.1705 14.488 24.6265 14.288 23.9385 14.288C23.2665 14.288 22.7225 14.488 22.3065 14.888C21.8905 15.272 21.5945 15.848 21.4185 16.616C21.2425 17.384 21.1545 18.352 21.1545 19.52C21.1545 20.688 21.2425 21.664 21.4185 22.448C21.6105 23.232 21.9065 23.824 22.3065 24.224C22.7225 24.624 23.2745 24.824 23.9625 24.824ZM32.8817 26V24.824H32.9777C33.3457 24.824 33.6737 24.784 33.9617 24.704C34.2497 24.624 34.4737 24.464 34.6337 24.224C34.8097 23.984 34.8977 23.624 34.8977 23.144V15.896C34.8977 15.432 34.8177 15.088 34.6577 14.864C34.4977 14.64 34.2817 14.496 34.0097 14.432C33.7537 14.352 33.4497 14.312 33.0977 14.312H33.0017V13.136H37.6097L37.9217 14.936H38.0417C38.3617 14.328 38.7057 13.88 39.0737 13.592C39.4577 13.288 39.8657 13.088 40.2977 12.992C40.7457 12.896 41.2257 12.848 41.7377 12.848C42.9857 12.848 43.9617 13.216 44.6657 13.952C45.3697 14.688 45.7217 15.872 45.7217 17.504V23.12C45.7217 23.616 45.7857 23.984 45.9137 24.224C46.0577 24.464 46.2497 24.624 46.4897 24.704C46.7457 24.784 47.0497 24.824 47.4017 24.824H47.4977V26H42.6017V17.96C42.6017 16.92 42.4337 16.12 42.0977 15.56C41.7777 14.984 41.2177 14.696 40.4177 14.696C39.8097 14.696 39.3297 14.872 38.9777 15.224C38.6417 15.576 38.3937 16.04 38.2337 16.616C38.0897 17.192 38.0177 17.816 38.0177 18.488V23.24C38.0177 23.704 38.0897 24.048 38.2337 24.272C38.3937 24.496 38.6097 24.648 38.8817 24.728C39.1537 24.792 39.4657 24.824 39.8177 24.824H39.9137V26H32.8817ZM55.158 26.24C54.022 26.24 53.15 25.96 52.542 25.4C51.95 24.84 51.654 23.864 51.654 22.472V14.672H49.83V13.544C50.262 13.544 50.67 13.456 51.054 13.28C51.438 13.104 51.758 12.888 52.014 12.632C52.254 12.36 52.47 12.024 52.662 11.624C52.854 11.224 53.006 10.736 53.118 10.16H54.774V13.136H57.87V14.672H54.774V22.352C54.774 23.104 54.91 23.664 55.182 24.032C55.47 24.384 55.886 24.56 56.43 24.56C56.75 24.56 57.038 24.544 57.294 24.512C57.566 24.464 57.83 24.408 58.086 24.344V25.712C57.846 25.824 57.462 25.936 56.934 26.048C56.422 26.176 55.83 26.24 55.158 26.24ZM64.6564 26.24C63.9524 26.24 63.3124 26.104 62.7364 25.832C62.1764 25.544 61.7284 25.112 61.3924 24.536C61.0724 23.96 60.9124 23.232 60.9124 22.352C60.9124 21.072 61.3604 20.12 62.2564 19.496C63.1524 18.872 64.5044 18.528 66.3124 18.464L68.3044 18.392V17.024C68.3044 16.48 68.2644 16 68.1844 15.584C68.1044 15.152 67.9364 14.816 67.6804 14.576C67.4404 14.336 67.0564 14.216 66.5284 14.216C66.0484 14.216 65.6724 14.328 65.4004 14.552C65.1284 14.776 64.9444 15.088 64.8484 15.488C64.7524 15.872 64.7044 16.312 64.7044 16.808C63.7764 16.808 63.0804 16.696 62.6164 16.472C62.1524 16.232 61.9204 15.824 61.9204 15.248C61.9204 14.672 62.1284 14.208 62.5444 13.856C62.9764 13.504 63.5524 13.248 64.2724 13.088C64.9924 12.928 65.7764 12.848 66.6244 12.848C68.2244 12.848 69.4244 13.16 70.2244 13.784C71.0244 14.392 71.4244 15.448 71.4244 16.952V23.12C71.4244 23.552 71.4644 23.896 71.5444 24.152C71.6404 24.392 71.8004 24.568 72.0244 24.68C72.2484 24.776 72.5364 24.824 72.8884 24.824H72.9604V26H68.9764L68.4964 24.2H68.3044C67.9524 24.632 67.6164 25 67.2964 25.304C66.9924 25.608 66.6324 25.84 66.2164 26C65.8164 26.16 65.2964 26.24 64.6564 26.24ZM65.6884 24.584C66.2324 24.584 66.6964 24.456 67.0804 24.2C67.4644 23.944 67.7604 23.576 67.9684 23.096C68.1924 22.616 68.3044 22.056 68.3044 21.416V19.568L67.0564 19.64C66.3044 19.672 65.7124 19.8 65.2804 20.024C64.8644 20.248 64.5604 20.56 64.3684 20.96C64.1924 21.36 64.1044 21.856 64.1044 22.448C64.1044 22.928 64.1604 23.328 64.2724 23.648C64.3844 23.952 64.5604 24.184 64.8004 24.344C65.0404 24.504 65.3364 24.584 65.6884 24.584ZM81.9834 26.24C80.8634 26.24 79.8714 26.024 79.0074 25.592C78.1434 25.16 77.4634 24.464 76.9674 23.504C76.4714 22.528 76.2234 21.232 76.2234 19.616C76.2234 17.904 76.4714 16.56 76.9674 15.584C77.4794 14.592 78.1594 13.888 79.0074 13.472C79.8714 13.056 80.8394 12.848 81.9114 12.848C82.8074 12.848 83.5914 12.952 84.2634 13.16C84.9514 13.368 85.4874 13.656 85.8714 14.024C86.2554 14.392 86.4474 14.832 86.4474 15.344C86.4474 15.696 86.3594 16.016 86.1834 16.304C86.0234 16.576 85.7434 16.792 85.3434 16.952C84.9434 17.112 84.3994 17.192 83.7114 17.192C83.7114 16.648 83.6554 16.152 83.5434 15.704C83.4474 15.256 83.2714 14.896 83.0154 14.624C82.7754 14.352 82.4234 14.216 81.9594 14.216C81.4474 14.216 80.9914 14.376 80.5914 14.696C80.2074 15 79.9114 15.544 79.7034 16.328C79.4954 17.112 79.3914 18.2 79.3914 19.592C79.3914 20.696 79.5034 21.616 79.7274 22.352C79.9514 23.072 80.2874 23.616 80.7354 23.984C81.1994 24.352 81.8074 24.536 82.5594 24.536C83.0874 24.536 83.5674 24.456 83.9994 24.296C84.4474 24.136 84.8314 23.92 85.1514 23.648C85.4874 23.36 85.7434 23.04 85.9194 22.688C86.0794 22.8 86.1994 22.944 86.2794 23.12C86.3754 23.296 86.4234 23.496 86.4234 23.72C86.4234 24.12 86.2634 24.512 85.9434 24.896C85.6234 25.28 85.1354 25.6 84.4794 25.856C83.8394 26.112 83.0074 26.24 81.9834 26.24ZM94.3596 26.24C93.2236 26.24 92.3516 25.96 91.7436 25.4C91.1516 24.84 90.8556 23.864 90.8556 22.472V14.672H89.0316V13.544C89.4636 13.544 89.8716 13.456 90.2556 13.28C90.6396 13.104 90.9596 12.888 91.2156 12.632C91.4556 12.36 91.6716 12.024 91.8636 11.624C92.0556 11.224 92.2076 10.736 92.3196 10.16H93.9756V13.136H97.0716V14.672H93.9756V22.352C93.9756 23.104 94.1116 23.664 94.3836 24.032C94.6716 24.384 95.0876 24.56 95.6316 24.56C95.9516 24.56 96.2396 24.544 96.4956 24.512C96.7676 24.464 97.0316 24.408 97.2876 24.344V25.712C97.0476 25.824 96.6636 25.936 96.1356 26.048C95.6236 26.176 95.0316 26.24 94.3596 26.24ZM106.972 26V24.824H107.116C107.484 24.824 107.804 24.784 108.076 24.704C108.364 24.624 108.588 24.464 108.748 24.224C108.908 23.984 108.988 23.624 108.988 23.144V15.848C108.988 15.384 108.908 15.04 108.748 14.816C108.604 14.592 108.396 14.448 108.124 14.384C107.868 14.304 107.564 14.264 107.212 14.264H107.14V13.136H111.7L112.012 14.936H112.132C112.452 14.328 112.796 13.88 113.164 13.592C113.532 13.288 113.932 13.088 114.364 12.992C114.812 12.896 115.284 12.848 115.78 12.848C116.34 12.848 116.852 12.92 117.316 13.064C117.78 13.208 118.188 13.432 118.54 13.736C118.892 14.024 119.164 14.424 119.356 14.936H119.548C119.868 14.328 120.228 13.88 120.628 13.592C121.028 13.288 121.452 13.088 121.9 12.992C122.364 12.896 122.852 12.848 123.364 12.848C124.596 12.848 125.556 13.216 126.244 13.952C126.948 14.688 127.3 15.872 127.3 17.504V23.12C127.3 23.616 127.364 23.984 127.492 24.224C127.636 24.464 127.836 24.624 128.092 24.704C128.348 24.784 128.652 24.824 129.004 24.824H129.076V26H124.18V17.96C124.18 16.92 124.02 16.12 123.7 15.56C123.38 14.984 122.828 14.696 122.044 14.696C121.484 14.696 121.028 14.856 120.676 15.176C120.34 15.496 120.092 15.92 119.932 16.448C119.788 16.976 119.716 17.552 119.716 18.176V23.12C119.716 23.6 119.78 23.968 119.908 24.224C120.052 24.464 120.252 24.624 120.508 24.704C120.764 24.784 121.068 24.824 121.42 24.824H121.492V26H116.596V17.96C116.596 16.92 116.436 16.12 116.116 15.56C115.796 14.984 115.244 14.696 114.46 14.696C113.868 14.696 113.396 14.872 113.044 15.224C112.708 15.576 112.468 16.04 112.324 16.616C112.18 17.192 112.108 17.816 112.108 18.488V23.24C112.108 23.704 112.188 24.048 112.348 24.272C112.508 24.496 112.724 24.648 112.996 24.728C113.268 24.792 113.58 24.824 113.932 24.824H114.004V26H106.972ZM138.07 26.24C136.15 26.24 134.67 25.664 133.63 24.512C132.606 23.344 132.094 21.72 132.094 19.64C132.094 17.4 132.59 15.712 133.582 14.576C134.59 13.424 135.998 12.848 137.806 12.848C139.486 12.848 140.798 13.336 141.742 14.312C142.702 15.272 143.182 16.704 143.182 18.608V19.784H135.262C135.294 20.904 135.438 21.816 135.694 22.52C135.966 23.208 136.342 23.72 136.822 24.056C137.318 24.392 137.918 24.56 138.622 24.56C139.182 24.56 139.678 24.48 140.11 24.32C140.558 24.144 140.942 23.92 141.262 23.648C141.582 23.36 141.838 23.048 142.03 22.712C142.206 22.792 142.342 22.928 142.438 23.12C142.55 23.296 142.606 23.504 142.606 23.744C142.606 24.144 142.438 24.536 142.102 24.92C141.782 25.304 141.286 25.624 140.614 25.88C139.958 26.12 139.11 26.24 138.07 26.24ZM139.99 18.344C139.99 17.528 139.918 16.816 139.774 16.208C139.63 15.6 139.398 15.136 139.078 14.816C138.774 14.48 138.358 14.312 137.83 14.312C137.318 14.312 136.878 14.464 136.51 14.768C136.158 15.072 135.878 15.528 135.67 16.136C135.478 16.728 135.358 17.464 135.31 18.344H139.99Z" fill="#8C785B"/>
<path d="M157.3 25.92V24.34L163.74 20.86L157.3 17.34V15.76L165.88 20.44V21.26L157.3 25.92ZM169.472 25.92V24.34L175.912 20.86L169.472 17.34V15.76L178.052 20.44V21.26L169.472 25.92ZM181.644 25.92V24.34L188.084 20.86L181.644 17.34V15.76L190.224 20.44V21.26L181.644 25.92Z" fill="#8C785B"/>
</svg>
